<svg version="1.1" viewBox="0.0 0.0 576.0 576.0" fill="none" stroke="none" stroke-linecap="square" stroke-miterlimit="10" xmlns:xlink="http://www.w3.org/1999/xlink" xmlns="http://www.w3.org/2000/svg"><clipPath id="p.0"><path d="m0 0l576.0 0l0 576.0l-576.0 0l0 -576.0z" clip-rule="nonzero"/></clipPath><g clip-path="url(#p.0)"><path fill="#000000" fill-opacity="0.0" d="m0 0l576.0 0l0 576.0l-576.0 0z" fill-rule="evenodd"/><defs><linearGradient id="p.1" gradientUnits="userSpaceOnUse" gradientTransform="matrix(22.497252882163973 12.447804335029971 -12.447804335029971 22.497252882163973 0.0 0.0)" spreadMethod="pad" x1="11.810835045834391" y1="18.074791085815402" x2="11.811082276101391" y2="-4.4224617949901255"><stop offset="0.0" stop-color="#004099"/><stop offset="1.0" stop-color="#006aff"/></linearGradient></defs><path fill="url(#p.1)" d="m263.13174 45.11954l0 0c6.906891 -12.459976 22.611237 -16.96955 35.07663 -10.072411l0 0l0 0c5.986084 3.3121262 10.409424 8.865528 12.296875 15.438519c1.8874512 6.572994 1.0844727 13.627159 -2.2323608 19.61065l-255.42566 460.7848c-6.90691 12.460022 -22.611258 16.969543 -35.076645 10.072449l0 0l0 0c-12.465388 -6.897156 -16.971426 -22.589233 -10.064518 -35.049194z" fill-rule="evenodd"/><defs><linearGradient id="p.2" gradientUnits="userSpaceOnUse" gradientTransform="matrix(0.0 7.186811703983233 -7.186811703983233 0.0 0.0 0.0)" spreadMethod="pad" x1="76.00970388011946" y1="-79.47665119952241" x2="68.82289217631973" y2="-79.47670255671714"><stop offset="0.0" stop-color="#004099"/><stop offset="1.0" stop-color="#0044a3"/></linearGradient></defs><path fill="url(#p.2)" d="m545.7708 494.61716l0 0c14.035156 0 25.412903 11.377747 25.412903 25.412872l0 0.8222656l0 0c0 6.739929 -2.6774292 13.203796 -7.4432373 17.969604c-4.765869 4.765869 -11.229736 7.4432983 -17.969666 7.4432983l-259.06223 0c-14.035126 0 -25.412872 -11.377747 -25.412872 -25.412903l0 -0.8222656c0 -14.035126 11.377747 -25.412872 25.412872 -25.412872z" fill-rule="evenodd"/><defs><linearGradient id="p.3" gradientUnits="userSpaceOnUse" gradientTransform="matrix(22.72620902028243 0.0 0.0 22.72620902028243 0.0 0.0)" spreadMethod="pad" x1="13.770168764905229" y1="24.03681791116024" x2="13.770417792308516" y2="1.3106088922421983"><stop offset="0.0" stop-color="#004099"/><stop offset="1.0" stop-color="#006aff"/></linearGradient></defs><path fill="url(#p.3)" d="m261.29572 55.60917l0 0c0 -14.262199 11.561798 -25.824 25.824005 -25.824l0 0l0 0c6.848938 0 13.417389 2.7207355 18.260315 7.563673c4.8429565 4.8429413 7.56369 11.411377 7.56369 18.260326l0 464.832c0 14.262207 -11.561798 25.824036 -25.824005 25.824036l0 0l0 0c-14.262207 0 -25.824005 -11.561829 -25.824005 -25.824036z" fill-rule="evenodd"/><path fill="#000000" fill-opacity="0.0" d="m498.06036 363.08923l462.3307 0l0 53.95276l-462.3307 0z" fill-rule="evenodd"/></g></svg>