<svg xmlns="http://www.w3.org/2000/svg" fill="none" stroke-linecap="square" stroke-miterlimit="10" viewBox="0 0 576 576"><defs/><clipPath id="a"><path d="M0 0h576v576H0V0z"/></clipPath><g clip-path="url(#a)"><path fill="none" d="M0 0h576v576H0z"/><defs><linearGradient id="b" x1="11.8" x2="11.8" y1="18.1" y2="-4.4" gradientTransform="scale(25.71136) rotate(29)" gradientUnits="userSpaceOnUse" spreadMethod="pad"><stop offset="0" stop-color="#004099"/><stop offset="1" stop-color="#006aff"/></linearGradient></defs><path fill="url(#b)" fill-rule="evenodd" d="M263 45c7-12 23-17 35-10a26 26 0 0110 35L53 531c-7 12-23 17-35 10-13-7-17-23-10-35z"/><defs><linearGradient id="c" x1="76" x2="68.8" y1="-79.5" y2="-79.5" gradientTransform="rotate(90) scale(7.18681)" gradientUnits="userSpaceOnUse" spreadMethod="pad"><stop offset="0" stop-color="#004099"/><stop offset="1" stop-color="#0044a3"/></linearGradient></defs><path fill="url(#c)" fill-rule="evenodd" d="M546 495c14 0 25 11 25 25v1a25 25 0 01-25 25H287c-14 0-26-11-26-25v-1c0-14 12-25 26-25z"/><defs><linearGradient id="d" x1="13.8" x2="13.8" y1="24" y2="1.3" gradientTransform="scale(22.72621)" gradientUnits="userSpaceOnUse" spreadMethod="pad"><stop offset="0" stop-color="#004099"/><stop offset="1" stop-color="#006aff"/></linearGradient></defs><path fill="url(#d)" fill-rule="evenodd" d="M261 56c0-15 12-26 26-26a26 26 0 0126 26v464c0 15-12 26-26 26s-26-11-26-26z"/><path fill="none" d="M498 363h462v54H498z"/></g></svg>