<svg xmlns="http://www.w3.org/2000/svg" viewBox="0 0 512 512"><defs/><path fill="#fff" d="M463.7 162.7L442.5 14.2A15 15 0 00417 5.7l-30.9 30.9A253.3 253.3 0 00255 0 253.5 253.5 0 000 248.5a15 15 0 0012.9 15.2l60 8.6a15 15 0 0017-15 165 165 0 01229.6-154.1L289.8 133a15 15 0 008.4 25.4l148.5 21.2a15 15 0 0017-17zM499.1 249.4l-59.9-8.5a16 16 0 00-17.1 16.1 165.2 165.2 0 01-229.3 152l28.8-28.9a15 15 0 00-8.5-25.4L64.6 333.4a15 15 0 00-17 17L69 499a15 15 0 0025.4 8.5l31.7-31.6A254 254 0 00257 512 253.7 253.7 0 00512 264.7a15 15 0 00-12.9-15.3z"/></svg>